<svg xmlns="http://www.w3.org/2000/svg" width="46" height="46" fill="none"><path fill="#D9F8EA" d="M0 0h46v46H0z"/><g clip-path="url(#a)"><path fill="#28A76E" d="M29.151 25.475c2.532.5 4.25 1.835 5.181 3.976.15.345.118.763-.087 1.12a28.3 28.3 0 0 1-2.188 3.28c-.308.4-.795.62-1.262.566-4.23-.482-8.592-2.54-12.132-6.08-3.54-3.54-5.598-7.902-6.08-12.132-.053-.466.166-.954.567-1.262a28.309 28.309 0 0 1 3.278-2.188 1.263 1.263 0 0 1 1.121-.087c2.141.932 3.477 2.65 3.976 5.181.074.38-.045.796-.313 1.117l-1.86 2.23c-.364.434-.44 1.025-.183 1.467a14.04 14.04 0 0 0 5.168 5.168c.442.257 1.033.18 1.469-.182l2.228-1.861c.321-.267.737-.387 1.117-.313Z"/></g><defs><clipPath id="a"><path fill="#fff" d="M12 12h23v23H12z"/></clipPath></defs></svg>